<?xml version="1.0" encoding="UTF-8"?>
<svg width="1080" height="620.43" fill="none" version="1.1" xmlns="http://www.w3.org/2000/svg" xmlns:cc="http://creativecommons.org/ns#" xmlns:dc="http://purl.org/dc/elements/1.1/" xmlns:rdf="http://www.w3.org/1999/02/22-rdf-syntax-ns#"><metadata><rdf:RDF><cc:Work rdf:about=""><dc:format>image/svg+xml</dc:format><dc:type rdf:resource="http://purl.org/dc/dcmitype/StillImage"/><dc:title/></cc:Work></rdf:RDF></metadata><path d="m296.49 477.77 14.578 16.848c3.0757 3.5642.64509 9.0717-4.0492 9.0717h-61.722c-4.6943 0-7.1249-5.5075-4.0492-9.0717l14.578-16.848h-5.829c-4.2104 0-6.4798-4.6977-3.7266-7.7758l15.39-18.143h-7.292c-3.5653 0-5.3451-3.5636-3.237-5.9937l21.87-23.652c1.6185-1.7815 4.6943-1.7815 6.3128 0l21.87 23.652c2.1081 2.4301.32832 5.9937-3.237 5.9937h-7.1307l15.39 18.143c2.5919 3.078.32255 7.7758-3.8879 7.7758zm54.114-93.586-2.2233.59614c-.61532.16327-.97986.79647-.81213 1.4106l3.1276 11.684-5.6043.0944c-2.7359-3.6765-7.5108-5.5242-12.211-4.2657-4.6943 1.2579-7.9082 5.2472-8.4382 9.7992l-4.9016 2.7204-3.1334-11.684c-.16208-.61388-.7922-.97905-1.4054-.81444l-2.2291.59614c-.61538.16354-.97992.79693-.81214 1.4112l7.7527 28.93c.16364.6155.79642.98067 1.4112.81444l2.2233-.59614c.61538-.16354.97992-.79693.81213-1.4112l-3.1276-11.683 5.6043-.0944c2.7359 3.6765 7.5108 5.5237 12.211 4.2657 4.6943-1.2585 7.9082-5.2478 8.4382-9.7992l4.9016-2.7204 3.1334 11.684c.16231.61365.79226.97871 1.4054.81444l2.229-.59614c.61538-.16354.97992-.79693.81214-1.4112l-7.7527-28.93c-.16363-.61549-.79641-.98067-1.4112-.81444zm-15.672 13.83c1.2556-.17222 2.4882.00093 3.5999.47001l-1.152 1.9952c-.59326-.20618-1.2227-.28775-1.8489-.2396zm-1.6704.44755.59903 2.225c-.56573.27219-1.0696.6576-1.4803 1.1324l-1.9987-1.152c.74504-.97986 1.7397-1.7415 2.8799-2.2054zm-3.7439 3.7018 1.9987 1.152c-.20794.59326-.2903 1.2233-.24191 1.8501l-2.2233.59614c-.17279-1.2556 0-2.4859.46655-3.5982zm-.0231 5.2674 2.229-.59615c.27037.56639.65467 1.0709 1.1289 1.482l-1.152 1.9952c-.96188-.72862-1.728-1.7078-2.206-2.8811zm7.3035 4.215c-1.2556.17222-2.4882-.00093-3.5999-.47001l1.152-1.9952c.58174.2039 1.2096.28684 1.8489.23961zm-3.1564-6.2195c-.3324-1.2279.39547-2.4924 1.6243-2.8217 1.2293-.33075 2.4937.39899 2.8223 1.6289.69412 2.9051-3.5934 4.0553-4.4466 1.1929zm4.8267 5.7719-.59903-2.2256c.57599-.2782 1.0771-.66412 1.4803-1.1324l1.9987 1.152c-.74487.98021-1.7395 1.7421-2.8799 2.206zm3.7439-3.7018-1.9987-1.152c.20736-.58347.28799-1.2113.24192-1.8501l2.2233-.59614c.1728 1.2556 0 2.4854-.46654 3.5982zm-2.206-4.6712c-.27019-.5665-.65454-1.071-1.1289-1.482l1.152-1.9952c.9619.72862 1.728 1.7072 2.206 2.8811z" fill="#087f5b" stroke-width=".57598"/><path d="m637.83 494.79c-2.1023 0-3.8879-1.7009-3.8879-3.8879 0-2.1058 1.7855-3.8879 3.8879-3.8879 2.1887 0 3.8879 1.7821 3.8879 3.8879 0 2.187-1.6991 3.8879-3.8879 3.8879zm-7.6145 12.15 1.8662-.97226.80638-2.4295c1.2153-3.5642 4.5388-6.0749 8.2654-6.1561 2.9145 0 4.533.89105 7.5339 2.1058 1.7798.64798 3.237 2.0252 4.0492 3.726l.56446 1.0529c.65086 1.296.0807 2.835-1.1347 3.483-1.296.64799-2.8338.16186-3.4789-1.1341l-.57022-1.1335c-.24191-.56734-.72574-.97226-1.296-1.2153l-2.1887-.89105 1.2153 4.9414c.48958 1.7009 0 3.4824-1.2153 4.7784l-4.7749 5.2651a4.4351 4.4351 0 00-1.2153 2.2682l-1.5379 5.9125c-.32831 1.3772-1.7049 2.2682-3.0815 1.8633-1.4572-.32428-2.2694-1.7014-1.9411-3.0781l1.7798-7.209a5.6014 5.6014 0 011.2153-2.2676l3.7266-4.0503-1.3766-5.5076-.48959 1.296c-.40319 1.296-1.3766 2.3489-2.5919 2.9968l-1.8604.97226c-1.2153.64798-2.7532.0807-3.4041-1.1341-.64511-1.296-.16127-2.9162 1.1347-3.483zm18.552 11.339c.24191.64798.6451 1.296 1.1289 1.7821l4.0549 4.0497c1.0483.97226 1.0483 2.6731 0 3.6454-.97341 1.0529-2.6726 1.0529-3.646 0l-4.8613-4.7789c-.48382-.48613-.81214-1.1341-1.1347-1.7821l-1.054-2.7538c4.4581-4.8602 3.0815-3.3211 3.8072-4.2928z" fill="#024e37" stroke-width=".57598"/><g transform="matrix(.57598 0 0 .57598 -275.75 126.75)" fill="#49a5a0"><path d="m1771.7 301.31c.78-.78101.78-2.047 0-2.828l-4.64-4.637a2.001 2.001 0 00-2.26-.398l-30.65 14.279c-6.7 3.155-12.34 8.462-15.07 15.352-7.18 18.154 5.98 30.588 5.98 30.588s12.4 13.171 30.59 5.978c6.89-2.725 12.2-8.371 15.35-15.072l.92-1.969.62.063c1.8.178 3.57-.456 4.85-1.728l5.65-5.656a5.988 5.988 0 000-8.486 5.933 5.933 0 00-3-1.62l5.24-11.252c.35-.76199.19-1.665-.4-2.259l-4.64-4.637a1.99 1.99 0 00-2.82 0l-12.73 12.728-5.72-5.718zm-38.15 46.699a2.002 2.002 0 01-2.83-2.829 2.002 2.002 0 012.83 2.829zm11.31 5.657a2.002 2.002 0 01-2.83-2.829 2.002 2.002 0 012.83 2.829zm-16.97-16.971a2.001 2.001 0 110-2.828c.78.781.78 2.047 0 2.828zm24.04 4.243c-3.9 3.899-10.24 3.899-14.14 0s-3.9-10.243 0-14.142 10.24-3.899 14.14 0 3.9 10.243 0 14.142z" clip-rule="evenodd" fill-rule="evenodd"/><path d="m772.23 209.96a4 4 0 00-5.464-1.464l-19.919 11.5a3 3 0 00-1.098 4.098l1 1.732a3 3 0 004.098 1.098l6.738-3.89 9.548 2.708-1.108.781a4.78 4.78 0 004.759 8.242l1.23-.569-4.837 11.013-4.33 2.5a3 3 0 00-1.098 4.098l1 1.732a3 3 0 004.098 1.098l19.919-11.5a4 4 0 00-4-6.928l-7.604 4.39 4.45-9.914 2.368-1.095a28.043 28.043 0 01-3.482-4.773 28.056 28.056 0 01-2.393-5.403l-2.132 1.503-8.404-2.493 5.197-3a4 4 0 001.464-5.464zm28.516-2.607a4.005 4.005 0 00-1.464 5.464 4.005 4.005 0 005.464 1.464 4.006 4.006 0 001.465-5.464 4.006 4.006 0 00-5.465-1.464z"/><path d="m790.75 190.03c-11.479 6.627-15.412 21.306-8.784 32.785 6.627 11.479 21.305 15.412 32.784 8.784 11.48-6.627 15.412-21.305 8.785-32.784s-21.305-15.412-32.785-8.785zm16 27.713c-3.82 2.205-8.722.892-10.928-2.928-2.205-3.821-.892-8.723 2.928-10.929 3.821-2.205 8.723-.892 10.929 2.929 2.205 3.82.892 8.722-2.929 10.928z" clip-rule="evenodd" fill-rule="evenodd"/></g><g transform="matrix(.57598 0 0 .57598 -266.79 158.55)" fill="#087f5b"><path d="m1939.8 553.32h-4.01v-94c0-3.314-2.69-6-6.01-6h-2.01v-4c0-2.209-1.8-4-4.01-4h-24.05v-4c0-2.209-1.8-4-4.01-4-2.2126-.004-4.0089 1.7874-4.01 4v4h-24.06c-2.2126-.004-4.0089 1.7874-4.01 4v4h-2.01c-3.3167-.003-6.0078 2.6833-6.01 6v94h-4.01c-2.2112-.001-4.0056 1.7888-4.01 4v4c0 2.209 1.8 4 4.01 4h88.21c2.22 0 4.01-1.791 4.01-4v-4c0-2.209-1.79-4-4.01-4zm-50.12-84c1.11 0 2.01.896 2.01 2v6h-8.02v-8zm-16.04 0h6.02v8h-8.02v-6c0-1.104.9-2 2-2zm0 20c-1.1 0-2-.89499-2-2v-6h8.02v8zm18.05 26c0 1.105-.9 2-2.01 2h-16.04c-1.1 0-2-.89499-2-2v-16c0-1.104.9-2 2-2h16.04c1.11 0 2.01.896 2.01 2zm-2.01-26h-6.01v-8h8.02v6c0 1.105-.9 2-2.01 2zm28.07-20c1.11 0 2.01.896 2.01 2v6h-8.02v-8zm-16.04 0h6.02v8h-8.02v-6c0-1.104.89-2 2-2zm-2 18v-6h8.02v8h-6.02c-1.11 0-2-.89499-2-2zm18.04 2h-6.01v-8h8.02v6c0 1.105-.9 2-2.01 2z" clip-rule="evenodd" fill-rule="evenodd"/><path d="m2144.5 801.91c-8.15 0-12.37-9.562-7.03-15.75l25.31-29.25h-10.12c-7.31 0-11.25-8.156-6.47-13.5l26.72-31.5h-12.66c-6.19 0-9.28-6.187-5.62-10.406l37.97-41.063c2.81-3.093 8.15-3.093 10.96 0l20.52 22.188 20.52-22.188c2.81-3.093 8.15-3.093 10.96 0l37.97 41.063c3.66 4.219.57 10.406-5.62 10.406h-12.38l26.72 31.5c4.5 5.344.56 13.5-6.75 13.5h-10.12l25.31 29.25c5.34 6.188 1.12 15.75-7.03 15.75zm79.03-90 .69.81101.69-.81101z" clip-rule="evenodd" fill-rule="evenodd"/><path d="m609.48 756.91 25.313 29.25c5.344 6.188 1.125 15.75-7.031 15.75h-155.16c-8.156 0-12.375-9.562-7.031-15.75l25.313-29.25h-10.125c-7.313 0-11.25-8.156-6.469-13.5l26.719-31.5h-12.657c-6.187 0-9.281-6.187-5.625-10.406l37.969-41.063c2.813-3.093 8.156-3.093 10.969 0l18.516 20.025 18.515-20.025c2.813-3.093 8.156-3.093 10.969 0l37.969 41.063c3.656 4.219.562 10.406-5.625 10.406h-12.375l26.718 31.5c4.5 5.344.563 13.5-6.75 13.5zm94.172-158.97c-4.746-4.64-10.441-7.277-15.293-7.277-2.531 0-4.746.73802-6.539 2.109-.211.21101-.527.42201-.738.63301-4.114 4.113-10.758 12.024-10.758 19.406v10.547l-.949.95c-1.055 1.054-2.532 1.16-3.903.63201-.632-.21101-1.687-.42201-2.32-.42201-3.48 0-6.328 2.848-6.328 6.329 0 1.476.738 3.48 1.793 4.535 1.687 1.582 3.902 2.004 5.906 1.582-.422 2.004 0 4.324 1.582 5.906 1.055 1.055 3.059 1.898 4.535 1.898 3.5627.0235 6.4569-2.8703 6.434-6.433 0-.63301-.211-1.688-.527-2.32-.528-1.372-.317-2.848.632-3.903l.95-.94901h10.546c7.383 0 15.293-6.645 19.407-10.758.211-.211.527-.63299.738-.949 3.902-5.168 1.793-14.449-5.168-21.516zm.844 18.879c-1.055 1.055-2.531 1.266-3.692 1.266-3.586 0-8.121-2.215-11.601-5.695-2.953-2.848-4.957-6.434-5.59-9.598-.527-2.531-.106-4.641 1.055-5.801 1.054-.94899 2.531-1.266 3.691-1.266 3.586 0 8.121 2.215 11.707 5.801 5.59 5.696 7.066 12.762 4.43 15.293zm-12.762-12.656c-.949 1.055-.527 3.059.949 4.641 1.582 1.582 3.692 2.004 4.746.949 1.055-1.055.633-3.164-.949-4.641-1.582-1.582-3.691-2.004-4.746-.94901z"/></g><g transform="matrix(.57598 0 0 .57598 -287.26 -33.186)" fill="#49a5a0"><path d="m2045.1 171.27h-2.2215c-.6154 0-1.1108.49692-1.1108 1.1098v11.654l-5.2462-1.3095c-1.6307-4.1037-5.6215-7.0148-10.311-7.0148-4.6893 0-8.68 2.9111-10.311 7.0148l-5.2461 1.3095v-11.654c0-.61345-.4974-1.1107-1.1108-1.1098h-2.2216c-.613.00017-1.11.4968-1.1107 1.1098v28.857c0 .61305.4977 1.1097 1.1107 1.1098h2.2216c.6154 0 1.1108-.49692 1.1108-1.1098v-11.654l5.2461 1.3095c1.6308 4.1037 5.6215 7.0145 10.311 7.0145 4.6892 0 8.68-2.9108 10.311-7.0145l5.2462-1.3095v11.654c0 .61345.4973 1.1107 1.1108 1.1098h2.2215c.6123 0 1.1108-.49692 1.1108-1.1098v-28.857c0-.61305-.4978-1.1097-1.1108-1.1098zm-18.055 8.9631c1.2123.15293 2.3139.62093 3.2339 1.3345l-1.5692 1.5695c-.5026-.33904-1.069-.5719-1.6647-.6843zm-1.6677 0v2.2197c-.5956.1124-1.1621.34526-1.6646.6843l-1.5692-1.5695c.9382-.72782 2.0554-1.1889 3.2338-1.3345zm-4.4123 2.5114 1.5693 1.5698c-.339.50141-.5714 1.067-.6831 1.6618h-2.2215c.1446-1.1782.6061-2.295 1.3353-3.2317zm-1.3353 4.8963h2.2215c.1117.59483.3441 1.1604.6831 1.6618l-1.5693 1.5695c-.7293-.93649-1.1907-2.0533-1.3353-3.2314zm5.7476 5.7431c-1.1784-.14562-2.2956-.60665-3.2338-1.3345l1.5692-1.5695c.5025.33904 1.069.5719 1.6646.6843zm-1.3876-6.5754c1e-4-1.2266.9949-2.2206 2.2215-2.2197 1.2403-.0207 2.2569.97917 2.2569 2.2197s-1.0166 2.2403-2.2569 2.2197c-1.2277 0-2.2215-.99384-2.2215-2.2197zm3.0553 6.5754v-2.2197c.5957-.1124 1.1621-.34526 1.6647-.6843l1.5692 1.5695c-.9382.72782-2.0554 1.1889-3.2339 1.3345zm4.4123-2.5117-1.5723-1.5695c.3411-.50055.5748-1.0664.6862-1.6618h2.2215c-.1446 1.1781-.6061 2.2949-1.3354 3.2314zm-.8861-4.896c-.1114-.59544-.3451-1.1613-.6862-1.6618l1.5723-1.5698c.7292.93665 1.1908 2.0535 1.3354 3.2317z" stroke-width=".30769"/><path d="m1621.1 67.209c-2.9387 2.9262-2.9387 7.6835 0 10.61 2.927 2.9292 7.6748 2.9292 10.602 0 2.9252-2.9316 2.9252-7.6781 0-10.61-2.9273-2.9292-7.6751-2.9292-10.602 0z" stroke-width="1.2503"/><path d="m1016.4 303.16c-2.9387 2.9262-2.9387 7.6835 0 10.61 2.927 2.9292 7.6748 2.9292 10.602 0 2.9252-2.9316 2.9252-7.6781 0-10.61-2.9273-2.9292-7.6751-2.9292-10.602 0z" stroke-width="1.2503"/><path d="m1603.5 470.63c-1.3714 1.3656-1.3714 3.5856 0 4.9514 1.366 1.367 3.5816 1.367 4.9476 0 1.3652-1.3681 1.3652-3.5831 0-4.9514-1.366-1.367-3.5817-1.367-4.9476 0z" stroke-width=".58348"/></g><path d="m134.09 335.34 10.415 12.036c2.1974 2.5463.4609 6.481-2.8928 6.481h-44.096c-3.3537 0-5.0902-3.9347-2.8928-6.481l10.415-12.036h-4.1643c-3.0081 0-4.6294-3.3562-2.6624-5.5552l10.995-12.962h-5.2095c-2.5471 0-3.8186-2.5459-2.3126-4.282l15.624-16.897c1.1563-1.2728 3.3537-1.2728 4.51 0l15.624 16.897c1.506 1.7361.23454 4.282-2.3126 4.282h-5.0943l10.995 12.962c1.8517 2.199.23045 5.5552-2.7776 5.5552z" fill="#087f5b" stroke-width=".4115"/><g fill="#49a5a0"><g transform="matrix(.34537 0 0 .34537 192.8 465.68)"><path d="m2284.9-575.93 25.31 29.25c5.34 6.188 1.12 15.75-7.03 15.75h-107.16c-8.15 0-12.37-9.562-7.03-15.75l25.31-29.25h-10.12c-7.31 0-11.25-8.156-6.47-13.5l26.72-31.5h-12.66c-6.19 0-9.28-6.187-5.62-10.406l37.97-41.063c2.81-3.093 8.15-3.093 10.96 0l37.97 41.063c3.66 4.219.57 10.406-5.62 10.406h-12.38l26.72 31.5c4.5 5.344.56 13.5-6.75 13.5zm93.954-162.48-3.86 1.035c-1.0683.28347-1.7012 1.3828-1.41 2.449l5.43 20.285-9.73.164c-4.75-6.383-13.04-9.591-21.2-7.406-8.15 2.184-13.73 9.11-14.65 17.013l-8.51 4.723-5.44-20.285c-.2814-1.0658-1.3754-1.6998-2.44-1.414l-3.87 1.035c-1.0684.28393-1.7013 1.3836-1.41 2.45l13.46 50.228c.2841 1.0686 1.3827 1.7026 2.45 1.414l3.86-1.035c1.0684-.28393 1.7013-1.3836 1.41-2.45l-5.43-20.284 9.73-.164c4.75 6.383 13.04 9.59 21.2 7.406 8.15-2.185 13.73-9.111 14.65-17.013l8.51-4.723 5.44 20.285c.2818 1.0654 1.3755 1.6992 2.44 1.414l3.87-1.035c1.0684-.28394 1.7013-1.3836 1.41-2.45l-13.46-50.228c-.2841-1.0686-1.3827-1.7026-2.45-1.414zm-27.21 24.012c2.18-.299 4.32.002 6.25.816l-2 3.464c-1.03-.35798-2.1228-.49958-3.21-.41601zm-2.9.77701 1.04 3.863c-.9822.47255-1.8569 1.1417-2.57 1.966l-3.47-2c1.2935-1.7012 3.0204-3.0236 5-3.829zm-6.5 6.427 3.47 2c-.361 1.03-.504 2.1238-.42 3.212l-3.86 1.035c-.3-2.18 0-4.316.81-6.247zm-.04 9.145 3.87-1.035c.4694.98334 1.1366 1.8593 1.96 2.573l-2 3.464c-1.67-1.265-3-2.965-3.83-5.002zm12.68 7.318c-2.18.299-4.32-.002-6.25-.81599l2-3.464c1.01.35399 2.1.49799 3.21.416zm-5.48-10.798c-.5771-2.1319.6866-4.3273 2.82-4.899 2.1343-.57421 4.3295.69272 4.9 2.828 1.2051 5.0438-6.2388 7.0407-7.72 2.071zm8.38 10.021-1.04-3.864c1-.483 1.87-1.153 2.57-1.966l3.47 2c-1.2932 1.7018-3.0201 3.0246-5 3.83zm6.5-6.427-3.47-2c.36-1.013.5-2.103.42-3.212l3.86-1.035c.3 2.18 0 4.315-.81 6.247zm-3.83-8.11c-.4691-.98351-1.1364-1.8595-1.96-2.573l2-3.464c1.67 1.265 3 2.964 3.83 5.002zm-139.71-99.174c-31.8 0-61.4-4.67-86.5-12.612.49 4.347 1.35 8.574 2.45 12.705 24.79 7.156 53.37 11.201 84.05 11.201s59.26-4.045 84.05-11.201c1.1-4.131 1.96-8.358 2.45-12.705-25.1 7.942-54.71 12.612-86.5 12.612zm-22.48-28.235c15.52 0 28.1-12.642 28.1-28.236s-12.58-28.235-28.1-28.235-28.1 12.641-28.1 28.235 12.58 28.236 28.1 28.236zm0-36.706c4.66 0 8.43 3.792 8.43 8.47s-3.77 8.471-8.43 8.471c-4.65 0-8.43-3.793-8.43-8.471s3.78-8.47 8.43-8.47z" fill="#49a5a0"/></g><path d="m43.963 230.21 5.7861 6.6868c1.2208 1.4146.25605 3.6006-1.6071 3.6006h-24.498c-1.8632 0-2.8279-2.1859-1.6071-3.6006l5.7861-6.6868h-2.3135c-1.6711 0-2.5719-1.8645-1.4791-3.0862l6.1084-7.2012h-2.8942c-1.4151 0-2.1215-1.4144-1.2848-2.3789l8.6803-9.3873c.64238-.70709 1.8632-.70709 2.5056 0l8.6803 9.3873c.83668.9645.1303 2.3789-1.2848 2.3789h-2.8302l6.1084 7.2012c1.0287 1.2217.12803 3.0862-1.5431 3.0862z" stroke-width=".22861"/><path d="m110.2 101.07-5.6557-6.5361h2.2614c1.6334 0 2.5139-1.8225 1.5083-3.0167l-5.9708-7.0389h2.7664c1.3832 0 2.0737-1.3825 1.2558-2.3253l-8.4846-9.1758c-.6279-.69115-1.8212-.69115-2.4491 0l-8.4846 9.1758c-.81785.94276-.12737 2.3253 1.2558 2.3253h2.829l-5.9708 7.0389c-1.0681 1.1942-.1877 3.0167 1.4458 3.0167h2.2614l-5.6557 6.5361c-1.1933 1.3827-.25027 3.5194 1.5709 3.5194h23.946c1.8212 0 2.7642-2.1367 1.5709-3.5194zm2.1572-66.644-.77316-.44691c-.21358-.12362-.48695-.05034-.61004.16359l-2.3463 4.064-1.5642-1.5115c.25921-1.7591-.54523-3.5769-2.1787-4.5198-1.6335-.94298-3.611-.73048-5.0054.3725l-2.0893-.59797 2.3463-4.064c.1229-.21384.0492-.48713-.16313-.61047l-.77539-.44692c-.21362-.12337-.4868-.05014-.61003.16357l-5.8099 10.063c-.1229.21384-.04918.48714.16312.61048l.77539.44691c.21229.12358.48714.05028.61005-.16356l2.3463-4.0638 1.562 1.5112c-.25697 1.7591.54748 3.5769 2.1809 4.5198 1.6335.94299 3.6088.7307 5.0032-.37228l2.0916.59797-2.3463 4.0638c-.12481.21345-.0515.48774.16313.61049l.77316.44691c.21451.12358.48713.05028.61003-.16357l5.8099-10.063c.12482-.21347.0515-.48774-.16312-.61049zm-8.0936-.50568c.38113.28811.67754.67358.85807 1.1159l-.86253.2315c-.10709-.21908-.25761-.41411-.44245-.57317zm-.58098-.33518-.44691.77427c-.22996-.08094-.47414-.11362-.7173-.09609l-.23016-.86343c.46255-.06394.94074-.0055 1.3944.18525zm-2.0424-.01161.23016.86321c-.21865.10699-.41326.25729-.57205.44177l-.77316-.44692c.28752-.38133.67281-.67781 1.115-.85807zm-1.4502 1.4386.77316.44691c-.0813.22988-.11408.47414-.0961.7173l-.86255.2315c-.06629-.47344-.002-.95601.18548-1.3957zm.84467 3.159c-.38123-.288-.67767-.67354-.85808-1.1159l.86478-.23128c.10555.21943.25542.41457.44021.57316zm.84018-2.5722c.24728-.42776.79444-.57419 1.2223-.32714.42758.24681.57374.79376.32624 1.221-.24647.42738-.79284.57388-1.2201.32714-.428-.24636-.57506-.79312-.32849-1.221zm-.25921 2.9074.44692-.77406c.23463.08179.47819.11375.71729.09586l.2324.86344c-.46479.06388-.94298.0055-1.3966-.18522zm2.0424.01182-.23015-.86343c.21905-.10632.4138-.25672.57204-.44177l.7754.44691c-.28842.38142-.67442.67795-1.1173.8583zm.67708-1.8857c.0827-.23463.11396-.47819.0961-.7173l.86478-.23128c.0626.4639.004.94232-.18547 1.3955z" stroke-width=".22346"/></g></svg>
