<?xml version="1.0" encoding="UTF-8" standalone="no"?>
<svg
   xmlns:dc="http://purl.org/dc/elements/1.1/"
   xmlns:cc="http://creativecommons.org/ns#"
   xmlns:rdf="http://www.w3.org/1999/02/22-rdf-syntax-ns#"
   xmlns:svg="http://www.w3.org/2000/svg"
   xmlns="http://www.w3.org/2000/svg"
   xmlns:sodipodi="http://sodipodi.sourceforge.net/DTD/sodipodi-0.dtd"
   xmlns:inkscape="http://www.inkscape.org/namespaces/inkscape"
   width="1340"
   height="835.3844"
   version="1.1"
   id="svg129"
   sodipodi:docname="home-scene-scifi-otim-unid.svg"
   style="fill:none"
   inkscape:version="0.92.4 (5da689c313, 2019-01-14)">
  <defs
     id="defs133" />
  <sodipodi:namedview
     pagecolor="#ffffff"
     bordercolor="#666666"
     borderopacity="1"
     objecttolerance="10"
     gridtolerance="10"
     guidetolerance="10"
     inkscape:pageopacity="0"
     inkscape:pageshadow="2"
     inkscape:window-width="1280"
     inkscape:window-height="737"
     id="namedview131"
     showgrid="false"
     fit-margin-top="70"
     fit-margin-left="70"
     fit-margin-right="70"
     fit-margin-bottom="70"
     inkscape:zoom="0.45016955"
     inkscape:cx="808.4716"
     inkscape:cy="454.90089"
     inkscape:window-x="-8"
     inkscape:window-y="-8"
     inkscape:window-maximized="1"
     inkscape:current-layer="svg129" />
  <metadata
     id="metadata95">
    <rdf:RDF>
      <cc:Work
         rdf:about="">
        <dc:format>image/svg+xml</dc:format>
        <dc:type
           rdf:resource="http://purl.org/dc/dcmitype/StillImage" />
        <dc:title></dc:title>
      </cc:Work>
    </rdf:RDF>
  </metadata>
  <path
     d="m 494.76452,663.05154 17.67225,20.42327 c 3.72854,4.32067 0.782,10.99715 -4.90857,10.99715 h -74.82252 c -5.6906,0 -8.63714,-6.67648 -4.90858,-10.99715 l 17.67225,-20.42327 h -7.06612 c -5.10406,0 -7.85509,-5.69478 -4.51754,-9.42613 l 18.65675,-21.9943 h -8.83962 c -4.32204,0 -6.47958,-4.31997 -3.92405,-7.26582 l 26.51185,-28.67149 c 1.96204,-2.15962 5.6906,-2.15962 7.65263,0 l 26.51185,28.67149 c 2.55553,2.94585 0.398,7.26582 -3.92406,7.26582 h -8.6441 l 18.65675,21.9943 c 3.14204,3.73135 0.39101,9.42613 -4.71306,9.42613 z m 65.59888,-113.44871 -2.69518,0.72266 c -0.74592,0.19793 -1.18783,0.96552 -0.9845,1.70997 l 3.7914,14.16365 -6.7938,0.11443 c -3.3166,-4.45681 -9.10494,-6.69673 -14.80251,-5.17109 -5.6906,1.52493 -9.58673,6.36089 -10.22911,11.87901 l -5.94194,3.29775 -3.79839,-14.16364 c -0.19648,-0.74417 -0.96034,-1.18685 -1.70367,-0.9873 l -2.70217,0.72267 c -0.74599,0.19825 -1.1879,0.96607 -0.98451,1.71068 l 9.3982,35.07078 c 0.19837,0.74613 0.96545,1.18881 1.71067,0.9873 l 2.69518,-0.72267 c 0.74599,-0.19825 1.1879,-0.96607 0.9845,-1.71066 l -3.79139,-14.16294 6.79379,-0.11444 c 3.3166,4.4568 9.10494,6.69603 14.80251,5.17109 5.69059,-1.52563 9.58673,-6.36158 10.22911,-11.87901 l 5.94194,-3.29776 3.79839,14.16364 c 0.19676,0.74389 0.96041,1.18644 1.70368,0.9873 l 2.70215,-0.72267 c 0.74599,-0.19825 1.18791,-0.96607 0.98452,-1.71067 l -9.39821,-35.07079 c -0.19836,-0.74612 -0.96545,-1.18881 -1.71066,-0.98729 z m -18.99889,16.76593 c 1.52214,-0.20877 3.01637,0.001 4.36395,0.56977 l -1.39646,2.41866 c -0.71918,-0.24994 -1.48221,-0.34882 -2.24133,-0.29045 z m -2.02488,0.54254 0.72617,2.69725 c -0.6858,0.32996 -1.29656,0.79718 -1.79446,1.37274 l -2.42286,-1.39647 c 0.90317,-1.18783 2.10894,-2.11117 3.49115,-2.67352 z m -4.5385,4.48753 2.42287,1.39646 c -0.25208,0.71917 -0.35192,1.4829 -0.29326,2.24272 l -2.69518,0.72267 c -0.20946,-1.52214 0,-3.01357 0.56557,-4.36185 z m -0.028,6.38534 2.70215,-0.72268 c 0.32776,0.6866 0.79362,1.29823 1.36854,1.79655 l -1.39647,2.41867 c -1.16603,-0.88326 -2.09469,-2.07025 -2.67422,-3.49254 z m 8.85359,5.10965 c -1.52215,0.20877 -3.01637,-10e-4 -4.36396,-0.56976 l 1.39647,-2.41867 c 0.70521,0.24717 1.46629,0.34772 2.24133,0.29046 z m -3.82632,-7.53951 c -0.40295,-1.48856 0.47941,-3.02146 1.96901,-3.42064 1.49024,-0.40095 3.023,0.48368 3.42133,1.9746 0.84144,3.52168 -4.35612,4.91604 -5.39034,1.44604 z m 5.85119,6.99698 -0.72617,-2.69795 c 0.69824,-0.33725 1.30569,-0.80508 1.79446,-1.37274 l 2.42287,1.39646 c -0.90296,1.18825 -2.10873,2.11187 -3.49116,2.67423 z m 4.5385,-4.48754 -2.42287,-1.39646 c 0.25137,-0.7073 0.34911,-1.46837 0.29326,-2.24272 l 2.69517,-0.72267 c 0.20948,1.52215 0,3.01288 -0.56556,4.36185 z m -2.67423,-5.66264 c -0.32754,-0.68674 -0.79346,-1.29838 -1.36853,-1.79656 l 1.39646,-2.41868 c 1.16606,0.88326 2.0947,2.06955 2.67423,3.49256 z"
     id="path97"
     inkscape:connector-curvature="0"
     style="fill:#49a5a0;fill-opacity:1;stroke-width:0.69823182" />
  <path
     d="m 817.14994,664.64526 c -2.54855,0 -4.71306,-2.06188 -4.71306,-4.71306 0,-2.55274 2.16451,-4.71307 4.71306,-4.71307 2.65328,0 4.71305,2.16033 4.71305,4.71307 0,2.65118 -2.05977,4.71306 -4.71305,4.71306 z m -9.23063,14.72851 2.26227,-1.17862 0.97753,-2.94515 c 1.47328,-4.32065 5.50207,-7.36424 10.01962,-7.4627 3.53306,0 5.49509,1.08017 9.13287,2.55274 2.15754,0.78551 3.92407,2.45498 4.90858,4.51687 l 0.68427,1.27637 c 0.789,1.57101 0.0978,3.43669 -1.37552,4.2222 -1.57102,0.78552 -3.43531,0.19621 -4.21733,-1.37482 l -0.69124,-1.37411 c -0.29325,-0.68776 -0.87977,-1.17862 -1.57103,-1.47327 l -2.65328,-1.08017 1.47328,5.99013 c 0.59349,2.06188 0,4.22151 -1.47328,5.79253 l -5.78833,6.38255 a 5.376385,5.376385 0 0 0 -1.47327,2.74962 l -1.86427,7.16735 c -0.398,1.66948 -2.06678,2.74965 -3.73555,2.25879 -1.76653,-0.39311 -2.75104,-2.06257 -2.35305,-3.73136 l 2.15754,-8.73906 a 6.7903044,6.7903044 0 0 1 1.47327,-2.74895 l 4.51756,-4.90996 -1.66877,-6.67649 -0.5935,1.57102 c -0.48876,1.57103 -1.66877,2.84739 -3.14204,3.6329 l -2.25529,1.17861 c -1.47326,0.78551 -3.33755,0.0978 -4.12655,-1.37482 -0.78203,-1.57101 -0.1955,-3.53514 1.37551,-4.2222 z m 22.49005,13.74609 c 0.29325,0.78551 0.78202,1.57102 1.36853,2.16032 l 4.91556,4.90928 c 1.27077,1.17861 1.27077,3.24049 0,4.41911 -1.18001,1.27637 -3.23979,1.27637 -4.4198,0 l -5.89308,-5.79323 c -0.58651,-0.58931 -0.98452,-1.37483 -1.37553,-2.16034 l -1.27776,-3.33824 c 5.40433,-5.89168 3.73554,-4.02602 4.61531,-5.20392 z"
     id="path99"
     inkscape:connector-curvature="0"
     style="fill:#49a5a0;fill-opacity:1;stroke-width:0.69823182" />
  <g
     id="g107"
     style="fill:#49a5a0"
     transform="matrix(0.69823182,0,0,0.69823182,-290.3275,218.48671)">
    <path
       d="m 1771.742,301.31 c 0.78,-0.78101 0.78,-2.047 0,-2.828 l -4.64,-4.637 a 2.001,2.001 0 0 0 -2.26,-0.398 l -30.65,14.279 c -6.7,3.155 -12.34,8.462 -15.07,15.352 -7.18,18.154 5.98,30.588 5.98,30.588 0,0 12.4,13.171 30.59,5.978 6.89,-2.725 12.2,-8.371 15.35,-15.072 l 0.92,-1.969 0.62,0.063 c 1.8,0.178 3.57,-0.456 4.85,-1.728 l 5.65,-5.656 a 5.988,5.988 0 0 0 0,-8.486 5.933,5.933 0 0 0 -3,-1.62 l 5.24,-11.252 c 0.35,-0.76199 0.19,-1.665 -0.4,-2.259 l -4.64,-4.637 a 1.99,1.99 0 0 0 -2.82,0 l -12.73,12.728 -5.72,-5.718 z m -38.15,46.699 a 2.002,2.002 0 0 1 -2.83,-2.829 2.002,2.002 0 0 1 2.83,2.829 z m 11.31,5.657 a 2.002,2.002 0 0 1 -2.83,-2.829 2.002,2.002 0 0 1 2.83,2.829 z m -16.97,-16.971 a 2.001,2.001 0 1 1 0,-2.828 c 0.78,0.781 0.78,2.047 0,2.828 z m 24.04,4.243 c -3.9,3.899 -10.24,3.899 -14.14,0 -3.9,-3.899 -3.9,-10.243 0,-14.142 3.9,-3.899 10.24,-3.899 14.14,0 3.9,3.899 3.9,10.243 0,14.142 z"
       id="path101"
       inkscape:connector-curvature="0"
       style="clip-rule:evenodd;fill-rule:evenodd" />
    <path
       d="m 772.23,209.96 a 4,4 0 0 0 -5.464,-1.464 l -19.919,11.5 a 3,3 0 0 0 -1.098,4.098 l 1,1.732 a 3,3 0 0 0 4.098,1.098 l 6.738,-3.89 9.548,2.708 -1.108,0.781 a 4.78,4.78 0 0 0 4.759,8.242 l 1.23,-0.569 -4.837,11.013 -4.33,2.5 a 3,3 0 0 0 -1.098,4.098 l 1,1.732 a 3,3 0 0 0 4.098,1.098 l 19.919,-11.5 a 4,4 0 0 0 -4,-6.928 l -7.604,4.39 4.45,-9.914 2.368,-1.095 a 28.043,28.043 0 0 1 -3.482,-4.773 28.056,28.056 0 0 1 -2.393,-5.403 l -2.132,1.503 -8.404,-2.493 5.197,-3 a 4,4 0 0 0 1.464,-5.464 z m 28.516,-2.607 a 4.005,4.005 0 0 0 -1.464,5.464 4.005,4.005 0 0 0 5.464,1.464 4.006,4.006 0 0 0 1.465,-5.464 4.006,4.006 0 0 0 -5.465,-1.464 z"
       id="path103"
       inkscape:connector-curvature="0" />
    <path
       d="m 790.75,190.03 c -11.479,6.627 -15.412,21.306 -8.784,32.785 6.627,11.479 21.305,15.412 32.784,8.784 11.48,-6.627 15.412,-21.305 8.785,-32.784 -6.627,-11.479 -21.305,-15.412 -32.785,-8.785 z m 16,27.713 c -3.82,2.205 -8.722,0.892 -10.928,-2.928 -2.205,-3.821 -0.892,-8.723 2.928,-10.929 3.821,-2.205 8.723,-0.892 10.929,2.929 2.205,3.82 0.892,8.722 -2.929,10.928 z"
       id="path105"
       inkscape:connector-curvature="0"
       style="clip-rule:evenodd;fill-rule:evenodd" />
  </g>
  <g
     transform="matrix(0.69823182,0,0,0.69823182,-279.46995,257.03259)"
     id="g117"
     style="fill:#49a5a0;fill-opacity:1">
    <path
       d="m 1939.8165,553.32424 h -4.01 v -94 c 0,-3.314 -2.69,-6 -6.01,-6 h -2.01 v -4 c 0,-2.209 -1.8,-4 -4.01,-4 h -24.05 v -4 c 0,-2.209 -1.8,-4 -4.01,-4 -2.2126,-0.004 -4.0089,1.78741 -4.01,4 v 4 h -24.06 c -2.2126,-0.004 -4.0089,1.78741 -4.01,4 v 4 h -2.01 c -3.3167,-0.003 -6.0078,2.6833 -6.01,6 v 94 h -4.01 c -2.2112,-10e-4 -4.0056,1.78879 -4.01,4 v 4 c 0,2.209 1.8,4 4.01,4 h 88.21 c 2.22,0 4.01,-1.791 4.01,-4 v -4 c 0,-2.209 -1.79,-4 -4.01,-4 z m -50.12,-84 c 1.11,0 2.01,0.896 2.01,2 v 6 h -8.02 v -8 z m -16.04,0 h 6.02 v 8 h -8.02 v -6 c 0,-1.104 0.9,-2 2,-2 z m 0,20 c -1.1,0 -2,-0.89499 -2,-2 v -6 h 8.02 v 8 z m 18.05,26 c 0,1.105 -0.9,2 -2.01,2 h -16.04 c -1.1,0 -2,-0.89499 -2,-2 v -16 c 0,-1.104 0.9,-2 2,-2 h 16.04 c 1.11,0 2.01,0.896 2.01,2 z m -2.01,-26 h -6.01 v -8 h 8.02 v 6 c 0,1.105 -0.9,2 -2.01,2 z m 28.07,-20 c 1.11,0 2.01,0.896 2.01,2 v 6 h -8.02 v -8 z m -16.04,0 h 6.02 v 8 h -8.02 v -6 c 0,-1.104 0.89,-2 2,-2 z m -2,18 v -6 h 8.02 v 8 h -6.02 c -1.11,0 -2,-0.89499 -2,-2 z m 18.04,2 h -6.01 v -8 h 8.02 v 6 c 0,1.105 -0.9,2 -2.01,2 z"
       id="path109"
       inkscape:connector-curvature="0"
       style="clip-rule:evenodd;fill:#49a5a0;fill-opacity:1;fill-rule:evenodd"
       sodipodi:nodetypes="scsscsscscccccccccccsssssssscccsscccsssscccssssssssssscccsssscccsscccssscccssscccss" />
    <path
       d="m 739.10539,412.49356 c -4.746,-4.64 -10.441,-7.277 -15.293,-7.277 -2.531,0 -4.746,0.73802 -6.539,2.109 -0.211,0.21101 -0.527,0.42201 -0.738,0.63301 -4.114,4.113 -10.758,12.024 -10.758,19.406 v 10.547 l -0.949,0.95 c -1.055,1.054 -2.532,1.16 -3.903,0.63201 -0.632,-0.21101 -1.687,-0.42201 -2.32,-0.42201 -3.48,0 -6.328,2.848 -6.328,6.329 0,1.476 0.738,3.48 1.793,4.535 1.687,1.582 3.902,2.004 5.906,1.582 -0.422,2.004 0,4.324 1.582,5.906 1.055,1.055 3.059,1.898 4.535,1.898 3.5627,0.0235 6.4569,-2.8703 6.434,-6.433 0,-0.63301 -0.211,-1.688 -0.527,-2.32 -0.528,-1.372 -0.317,-2.848 0.632,-3.903 l 0.95,-0.94901 h 10.546 c 7.383,0 15.293,-6.645 19.407,-10.758 0.211,-0.211 0.527,-0.63299 0.738,-0.949 3.902,-5.168 1.793,-14.449 -5.168,-21.516 z m 0.844,18.879 c -1.055,1.055 -2.531,1.266 -3.692,1.266 -3.586,0 -8.121,-2.215 -11.601,-5.695 -2.953,-2.848 -4.957,-6.434 -5.59,-9.598 -0.527,-2.531 -0.106,-4.641 1.055,-5.801 1.054,-0.94899 2.531,-1.266 3.691,-1.266 3.586,0 8.121,2.215 11.707,5.801 5.59,5.696 7.066,12.762 4.43,15.293 z m -12.762,-12.656 c -0.949,1.055 -0.527,3.059 0.949,4.641 1.582,1.582 3.692,2.004 4.746,0.949 1.055,-1.055 0.633,-3.164 -0.949,-4.641 -1.582,-1.582 -3.691,-2.004 -4.746,-0.94901 z"
       id="path115"
       inkscape:connector-curvature="0"
       sodipodi:nodetypes="csccscccssccscccccsccccscccscccccccc"
       style="fill:#49a5a0;fill-opacity:1" />
  </g>
  <g
     id="g127"
     transform="matrix(0.69823182,0,0,0.69823182,-304.28687,24.606483)"
     style="fill:#49a5a0">
    <path
       d="m 2045.142,171.27 h -2.2215 c -0.6154,0 -1.1108,0.49692 -1.1108,1.1098 v 11.654 l -5.2462,-1.3095 c -1.6307,-4.1037 -5.6215,-7.0148 -10.311,-7.0148 -4.6893,0 -8.68,2.9111 -10.311,7.0148 l -5.2461,1.3095 v -11.654 c 0,-0.61345 -0.4974,-1.1107 -1.1108,-1.1098 h -2.2216 c -0.613,1.7e-4 -1.11,0.4968 -1.1107,1.1098 v 28.857 c 0,0.61305 0.4977,1.1097 1.1107,1.1098 h 2.2216 c 0.6154,0 1.1108,-0.49692 1.1108,-1.1098 v -11.654 l 5.2461,1.3095 c 1.6308,4.1037 5.6215,7.0145 10.311,7.0145 4.6892,0 8.68,-2.9108 10.311,-7.0145 l 5.2462,-1.3095 v 11.654 c 0,0.61345 0.4973,1.1107 1.1108,1.1098 h 2.2215 c 0.6123,0 1.1108,-0.49692 1.1108,-1.1098 v -28.857 c 0,-0.61305 -0.4978,-1.1097 -1.1108,-1.1098 z m -18.055,8.9631 c 1.2123,0.15293 2.3139,0.62093 3.2339,1.3345 l -1.5692,1.5695 c -0.5026,-0.33904 -1.069,-0.5719 -1.6647,-0.6843 z m -1.6677,0 v 2.2197 c -0.5956,0.1124 -1.1621,0.34526 -1.6646,0.6843 l -1.5692,-1.5695 c 0.9382,-0.72782 2.0554,-1.1889 3.2338,-1.3345 z m -4.4123,2.5114 1.5693,1.5698 c -0.339,0.50141 -0.5714,1.067 -0.6831,1.6618 h -2.2215 c 0.1446,-1.1782 0.6061,-2.295 1.3353,-3.2317 z m -1.3353,4.8963 h 2.2215 c 0.1117,0.59483 0.3441,1.1604 0.6831,1.6618 l -1.5693,1.5695 c -0.7293,-0.93649 -1.1907,-2.0533 -1.3353,-3.2314 z m 5.7476,5.7431 c -1.1784,-0.14562 -2.2956,-0.60665 -3.2338,-1.3345 l 1.5692,-1.5695 c 0.5025,0.33904 1.069,0.5719 1.6646,0.6843 z m -1.3876,-6.5754 c 10e-5,-1.2266 0.9949,-2.2206 2.2215,-2.2197 1.2403,-0.0207 2.2569,0.97917 2.2569,2.2197 0,1.24053 -1.0166,2.2403 -2.2569,2.2197 -1.2277,0 -2.2215,-0.99384 -2.2215,-2.2197 z m 3.0553,6.5754 v -2.2197 c 0.5957,-0.1124 1.1621,-0.34526 1.6647,-0.6843 l 1.5692,1.5695 c -0.9382,0.72782 -2.0554,1.1889 -3.2339,1.3345 z m 4.4123,-2.5117 -1.5723,-1.5695 c 0.3411,-0.50055 0.5748,-1.0664 0.6862,-1.6618 h 2.2215 c -0.1446,1.1781 -0.6061,2.2949 -1.3354,3.2314 z m -0.8861,-4.896 c -0.1114,-0.59544 -0.3451,-1.1613 -0.6862,-1.6618 l 1.5723,-1.5698 c 0.7292,0.93665 1.1908,2.0535 1.3354,3.2317 z"
       id="path119"
       inkscape:connector-curvature="0"
       style="stroke-width:0.30768999" />
    <path
       d="m 1621.142,67.209 c -2.9387,2.9262 -2.9387,7.6835 0,10.61 2.927,2.9292 7.6748,2.9292 10.602,0 2.9252,-2.9316 2.9252,-7.6781 0,-10.61 -2.9273,-2.9292 -7.6751,-2.9292 -10.602,0 z"
       id="path121"
       inkscape:connector-curvature="0"
       style="stroke-width:1.25030005" />
    <path
       d="m 1016.4,303.16 c -2.9387,2.9262 -2.9387,7.6835 0,10.61 2.927,2.9292 7.6748,2.9292 10.602,0 2.9252,-2.9316 2.9252,-7.6781 0,-10.61 -2.9273,-2.9292 -7.6751,-2.9292 -10.602,0 z"
       id="path123"
       inkscape:connector-curvature="0"
       style="stroke-width:1.25030005" />
    <path
       d="m 1714.6556,359.51576 c -1.3714,1.3656 -1.3714,3.5856 0,4.9514 1.366,1.367 3.5816,1.367 4.9476,0 1.3652,-1.3681 1.3652,-3.5831 0,-4.9514 -1.366,-1.367 -3.5817,-1.367 -4.9476,0 z"
       id="path125"
       inkscape:connector-curvature="0"
       style="stroke-width:0.58348" />
  </g>
  <path
     inkscape:connector-curvature="0"
     style="fill:#49a5a0;fill-opacity:1;stroke-width:0.4988322"
     d="m 1189.0296,345.67359 12.6255,14.59084 c 2.6638,3.08677 0.5587,7.85661 -3.5068,7.85661 h -53.4549 c -4.0655,0 -6.1705,-4.76984 -3.5068,-7.85661 l 12.6255,-14.59084 h -5.0482 c -3.6465,0 -5.6119,-4.06847 -3.2274,-6.73423 l 13.3287,-15.71323 h -6.3152 c -3.0877,0 -4.6291,-3.08627 -2.8034,-5.19085 l 18.9407,-20.48354 c 1.4017,-1.54289 4.0654,-1.54289 5.4672,0 l 18.9406,20.48354 c 1.8257,2.10458 0.2844,5.19085 -2.8034,5.19085 h -6.1755 l 13.3288,15.71323 c 2.2447,2.66576 0.2793,6.73423 -3.3672,6.73423 z"
     id="path97-0"
     sodipodi:nodetypes="ccssccsccsccccsccsc" />
  <g
     style="fill:#49a5a0;fill-opacity:1"
     transform="matrix(0.34536892,0,0,0.34536892,241.30707,653.17176)"
     id="g117-1-8" />
  <path
     inkscape:connector-curvature="0"
     style="fill:#49a5a0;fill-opacity:1;stroke-width:0.27712896"
     d="m 97.238438,343.91005 7.014132,8.10601 c 1.4799,1.71489 0.3104,4.36478 -1.94819,4.36478 H 72.607229 c -2.258628,0 -3.428082,-2.64989 -1.948222,-4.36478 l 7.014123,-8.10601 h -2.804525 c -2.025836,0 -3.117717,-2.26028 -1.793016,-3.74125 l 7.404859,-8.72956 h -3.508453 c -1.715403,0 -2.571742,-1.7146 -1.557448,-2.88381 L 85.93713,317.17569 c 0.778723,-0.85716 2.258591,-0.85716 3.03735,0 l 10.522583,11.37974 c 1.014257,1.16921 0.157955,2.88381 -1.557482,2.88381 h -3.430838 l 7.404857,8.72956 c 1.24709,1.48097 0.15521,3.74125 -1.8706,3.74125 z"
     id="path97-0-7"
     sodipodi:nodetypes="ccssccsccsccccsccsc" />
  <path
     style="fill:#49a5a0;fill-opacity:1;stroke-width:0.27088338"
     inkscape:connector-curvature="0"
     d="m 180.15211,106.56764 -0.93726,-0.54177 c -0.25891,-0.14985 -0.5903,-0.061 -0.73951,0.19832 l -2.84428,4.92655 -1.89618,-1.83225 c 0.31423,-2.1324 -0.66095,-4.33603 -2.64111,-5.47916 -1.98015,-1.14312 -4.37747,-0.88551 -6.06779,0.45157 l -2.53277,-0.72489 2.84429,-4.926565 c 0.14899,-0.259225 0.0596,-0.59052 -0.19775,-0.740041 l -0.93996,-0.54177 c -0.25896,-0.149554 -0.59012,-0.06078 -0.73951,0.198286 l -7.04298,12.19869 c -0.14898,0.25924 -0.0596,0.59053 0.19773,0.74005 l 0.93998,0.54176 c 0.25734,0.14981 0.59053,0.061 0.73953,-0.19827 l 2.84426,-4.92629 1.89348,1.83199 c -0.31153,2.13239 0.66367,4.33602 2.64383,5.47916 1.98015,1.14312 4.37475,0.88578 6.06507,-0.4513 l 2.53547,0.72489 -2.84428,4.92628 c -0.1513,0.25875 -0.0624,0.59126 0.19775,0.74006 l 0.93726,0.54176 c 0.26004,0.1498 0.59052,0.061 0.73951,-0.19828 l 7.04296,-12.1987 c 0.15132,-0.25878 0.0624,-0.59125 -0.19774,-0.74005 z m -9.8114,-0.61301 c 0.46202,0.34925 0.82134,0.81655 1.04019,1.35278 l -1.0456,0.28065 c -0.12982,-0.26558 -0.31228,-0.502 -0.53635,-0.69482 z m -0.70429,-0.40632 -0.54176,0.93861 c -0.27877,-0.0981 -0.57478,-0.13774 -0.86955,-0.1165 l -0.27901,-1.04669 c 0.56073,-0.0775 1.14041,-0.007 1.69032,0.22456 z m -2.47587,-0.0141 0.27901,1.04643 c -0.26506,0.12968 -0.50098,0.31188 -0.69347,0.53553 l -0.93726,-0.54178 c 0.34855,-0.46226 0.81561,-0.82167 1.35172,-1.04018 z m -1.75804,1.74394 0.93726,0.54176 c -0.0985,0.27867 -0.13829,0.57478 -0.11649,0.86955 l -1.04562,0.28063 c -0.0804,-0.57392 -0.002,-1.15892 0.22484,-1.69194 z m 1.02395,3.82949 c -0.46214,-0.34913 -0.8215,-0.81651 -1.0402,-1.3528 l 1.04832,-0.28036 c 0.12795,0.266 0.30963,0.50256 0.53364,0.69481 z m 1.0185,-3.11815 c 0.29977,-0.51855 0.96306,-0.69607 1.48174,-0.39657 0.51833,0.29919 0.69551,0.96223 0.39548,1.4801 -0.29878,0.5181 -0.96111,0.69568 -1.47901,0.39658 -0.51884,-0.29865 -0.69711,-0.96145 -0.39821,-1.48011 z m -0.31422,3.52447 0.54177,-0.93835 c 0.28443,0.0992 0.57969,0.13789 0.86953,0.11625 l 0.28173,1.0467 c -0.56344,0.0775 -1.14312,0.006 -1.69303,-0.22453 z m 2.47587,0.0143 -0.279,-1.0467 c 0.26555,-0.12889 0.50163,-0.31121 0.69346,-0.53553 l 0.93997,0.54176 c -0.34964,0.46237 -0.81756,0.82184 -1.35443,1.04047 z m 0.82079,-2.28599 c 0.10025,-0.28443 0.13814,-0.57968 0.11649,-0.86953 l 1.04833,-0.28037 c 0.0759,0.56235 0.005,1.14232 -0.22484,1.69168 z"
     id="path115-8-0-5"
     sodipodi:nodetypes="cccccsccccccccccccsccccccccccccccccccccccccccccccccccccccccccccccccccccccccc" />
  <path
     style="fill:#49a5a0;fill-opacity:1;stroke-width:0.27088338"
     inkscape:connector-curvature="0"
     d="m 264.88919,218.15635 -6.85606,-7.92335 h 2.74135 c 1.98014,0 3.04742,-2.20931 1.82845,-3.65692 l -7.238,-8.53283 h 3.35354 c 1.67676,0 2.51379,-1.67595 1.52236,-2.8188 l -10.28544,-11.12328 c -0.76118,-0.83785 -2.20769,-0.83785 -2.96888,0 l -10.28545,11.12328 c -0.99144,1.14285 -0.15441,2.8188 1.52237,2.8188 h 3.42938 l -7.23801,8.53283 c -1.29482,1.44761 -0.22754,3.65692 1.75261,3.65692 h 2.74135 l -6.85606,7.92335 c -1.44653,1.67622 -0.30339,4.26641 1.90431,4.26641 h 29.02786 c 2.20771,0 3.35083,-2.59019 1.90432,-4.26641 z"
     id="path115-8-0-5-1"
     sodipodi:nodetypes="ccsccsccccsccsccssc" />
  <g
     style="fill:#49a5a0;fill-opacity:1"
     transform="matrix(0.41867125,0,0,0.41867125,-332.91338,543.14025)"
     id="g117-1-8-7">
    <path
       inkscape:connector-curvature="0"
       d="m 2378.8607,-738.4046 -3.86,1.035 c -1.0683,0.28347 -1.7012,1.3828 -1.41,2.449 l 5.43,20.285 -9.73,0.164 c -4.75,-6.383 -13.04,-9.591 -21.2,-7.406 -8.15,2.184 -13.73,9.11 -14.65,17.013 l -8.51,4.723 -5.44,-20.285 c -0.2814,-1.0658 -1.3754,-1.6998 -2.44,-1.414 l -3.87,1.035 c -1.0684,0.28393 -1.7013,1.3836 -1.41,2.45 l 13.46,50.228 c 0.2841,1.0686 1.3827,1.7026 2.45,1.414 l 3.86,-1.035 c 1.0684,-0.28393 1.7013,-1.3836 1.41,-2.45 l -5.43,-20.284 9.73,-0.164 c 4.75,6.383 13.04,9.59 21.2,7.406 8.15,-2.185 13.73,-9.111 14.65,-17.013 l 8.51,-4.723 5.44,20.285 c 0.2818,1.0654 1.3755,1.6992 2.44,1.414 l 3.87,-1.035 c 1.0684,-0.28394 1.7013,-1.3836 1.41,-2.45 l -13.46,-50.228 c -0.2841,-1.0686 -1.3827,-1.7026 -2.45,-1.414 z m -27.21,24.012 c 2.18,-0.299 4.32,0.002 6.25,0.816 l -2,3.464 c -1.03,-0.35798 -2.1228,-0.49958 -3.21,-0.41601 z m -2.9,0.77701 1.04,3.863 c -0.9822,0.47255 -1.8569,1.1417 -2.57,1.966 l -3.47,-2 c 1.2935,-1.7012 3.0204,-3.0236 5,-3.829 z m -6.5,6.427 3.47,2 c -0.361,1.03 -0.504,2.1238 -0.42,3.212 l -3.86,1.035 c -0.3,-2.18 0,-4.316 0.81,-6.247 z m -0.04,9.145 3.87,-1.035 c 0.4694,0.98334 1.1366,1.8593 1.96,2.573 l -2,3.464 c -1.67,-1.265 -3,-2.965 -3.83,-5.002 z m 12.68,7.318 c -2.18,0.299 -4.32,-0.002 -6.25,-0.81599 l 2,-3.464 c 1.01,0.35399 2.1,0.49799 3.21,0.416 z m -5.48,-10.798 c -0.5771,-2.1319 0.6866,-4.3273 2.82,-4.899 2.1343,-0.57421 4.3295,0.69272 4.9,2.828 1.2051,5.0438 -6.2388,7.0407 -7.72,2.071 z m 8.38,10.021 -1.04,-3.864 c 1,-0.483 1.87,-1.153 2.57,-1.966 l 3.47,2 c -1.2932,1.7018 -3.0201,3.0246 -5,3.83 z m 6.5,-6.427 -3.47,-2 c 0.36,-1.013 0.5,-2.103 0.42,-3.212 l 3.86,-1.035 c 0.3,2.18 0,4.315 -0.81,6.247 z m -3.83,-8.11 c -0.4691,-0.98351 -1.1364,-1.8595 -1.96,-2.573 l 2,-3.464 c 1.67,1.265 3,2.964 3.83,5.002 z"
       id="path115-8-0-2"
       sodipodi:nodetypes="ccccccccccccccccccccccccccccccccccccccccccccccccccccccccccccccccccccccc"
       style="fill:#49a5a0;fill-opacity:1" />
  </g>
  <g
     style="fill:#49a5a0;fill-opacity:1"
     transform="matrix(0.41867125,0,0,0.41867125,-252.93953,767.67729)"
     id="g117-1-8-7-6">
    <path
       inkscape:connector-curvature="0"
       d="m 2220.7507,-805.21359 c -31.8,0 -61.4,-4.67 -86.5,-12.612 0.49,4.347 1.35,8.574 2.45,12.705 24.79,7.156 53.37,11.201 84.05,11.201 30.68,0 59.26,-4.045 84.05,-11.201 1.1,-4.131 1.96,-8.358 2.45,-12.705 -25.1,7.942 -54.71,12.612 -86.5,12.612 z m -22.48,-28.235 c 15.52,0 28.1,-12.642 28.1,-28.236 0,-15.594 -12.58,-28.235 -28.1,-28.235 -15.52,0 -28.1,12.641 -28.1,28.235 0,15.594 12.58,28.236 28.1,28.236 z m 0,-36.706 c 4.66,0 8.43,3.792 8.43,8.47 0,4.678 -3.77,8.471 -8.43,8.471 -4.65,0 -8.43,-3.793 -8.43,-8.471 0,-4.678 3.78,-8.47 8.43,-8.47 z"
       id="path115-8-0-2-2"
       sodipodi:nodetypes="sccsccsssssssssss"
       style="fill:#49a5a0;fill-opacity:1" />
  </g>
  <path
     d="m 1265.036,732.68749 c -3.3138,-3.2398 -7.2902,-5.08104 -10.678,-5.08104 -1.7672,0 -3.3138,0.51532 -4.5658,1.47258 -0.1473,0.14733 -0.3679,0.29466 -0.5152,0.44198 -2.8726,2.87183 -7.5117,8.39555 -7.5117,13.54989 v 7.36426 l -0.6626,0.66331 c -0.7366,0.73594 -1.7679,0.80995 -2.7251,0.4413 -0.4414,-0.14734 -1.178,-0.29466 -1.62,-0.29466 -2.4298,0 -4.4183,1.98856 -4.4183,4.4191 0,1.0306 0.5152,2.42985 1.2518,3.16649 1.178,1.10459 2.7246,1.39925 4.1239,1.10459 -0.2947,1.39926 0,3.01916 1.1046,4.12376 0.7365,0.73664 2.1358,1.32525 3.1663,1.32525 2.4877,0.0164 4.5085,-2.00414 4.4925,-4.49172 0,-0.442 -0.1473,-1.17862 -0.3679,-1.6199 -0.3687,-0.95798 -0.2214,-1.98856 0.4412,-2.72521 l 0.6634,-0.66262 h 7.3635 c 5.1551,0 10.678,-4.63976 13.5506,-7.51159 0.1473,-0.14732 0.368,-0.44197 0.5153,-0.66261 2.7245,-3.60847 1.2519,-10.08875 -3.6085,-15.02316 z m 0.5893,13.18192 c -0.7366,0.73663 -1.7672,0.88396 -2.5778,0.88396 -2.5039,0 -5.6704,-1.54658 -8.1003,-3.97643 -2.0619,-1.98856 -3.461,-4.49243 -3.903,-6.70163 -0.3681,-1.76722 -0.074,-3.2405 0.7365,-4.05045 0.736,-0.66261 1.7672,-0.88395 2.5773,-0.88395 2.5039,0 5.6704,1.54658 8.1741,4.05044 3.9032,3.97713 4.9337,8.91083 3.0932,10.67806 z m -8.9108,-8.83682 c -0.6627,0.73663 -0.368,2.13589 0.6626,3.24049 1.1047,1.10461 2.5779,1.39925 3.3139,0.66262 0.7365,-0.73663 0.442,-2.2092 -0.6626,-3.2405 -1.1048,-1.10459 -2.5773,-1.39925 -3.3139,-0.66262 z"
     id="path115-9"
     inkscape:connector-curvature="0"
     sodipodi:nodetypes="csccscccssccscccccsccccscccscccccccc"
     style="fill:#49a5a0;fill-opacity:1;stroke-width:0.69823182" />
  <g
     style="fill:#49a5a0;fill-opacity:1"
     transform="matrix(0.41867125,0,0,0.41867125,-714.44679,1064.7084)"
     id="g117-1-8-7-6-8">
    <path
       inkscape:connector-curvature="0"
       d="m 2220.7507,-805.21359 c -31.8,0 -61.4,-4.67 -86.5,-12.612 0.49,4.347 1.35,8.574 2.45,12.705 24.79,7.156 53.37,11.201 84.05,11.201 30.68,0 59.26,-4.045 84.05,-11.201 1.1,-4.131 1.96,-8.358 2.45,-12.705 -25.1,7.942 -54.71,12.612 -86.5,12.612 z m -22.48,-28.235 c 15.52,0 28.1,-12.642 28.1,-28.236 0,-15.594 -12.58,-28.235 -28.1,-28.235 -15.52,0 -28.1,12.641 -28.1,28.235 0,15.594 12.58,28.236 28.1,28.236 z m 0,-36.706 c 4.66,0 8.43,3.792 8.43,8.47 0,4.678 -3.77,8.471 -8.43,8.471 -4.65,0 -8.43,-3.793 -8.43,-8.471 0,-4.678 3.78,-8.47 8.43,-8.47 z"
       id="path115-8-0-2-2-0"
       sodipodi:nodetypes="sccsccsssssssssss"
       style="fill:#49a5a0;fill-opacity:1" />
  </g>
</svg>
